<svg width="80" height="80" viewBox="0 0 80 80" fill="none" xmlns="http://www.w3.org/2000/svg">
<g clip-path="url(#clip0_288_4242)">
<path d="M68.7304 13.6888C63.0362 8.01043 53.6619 8.01043 47.9677 13.6888L56.4552 22.1528L55.3785 23.2266C55.2708 23.334 55.1821 23.4476 55.1061 23.5613C54.5677 23.195 54.0103 22.8476 53.4339 22.5128C44.256 17.226 33.1969 18.1166 25.1021 23.8898C25.0071 23.5929 24.8487 23.315 24.6144 23.0813L23.5376 22.0075L32.0251 13.5436C26.3372 7.87147 16.963 7.87147 11.2687 13.5499C5.57449 19.2283 5.57449 28.5765 11.2687 34.255C11.2687 34.255 11.2814 34.2676 11.2877 34.2739L20.738 24.812L21.8084 25.8795C21.9478 26.0184 22.1061 26.1384 22.2772 26.2269C20.5163 27.907 18.9582 29.8588 17.6787 32.0695C10.4516 44.557 14.7397 60.5185 27.262 67.7254C39.7842 74.9324 55.7902 70.6562 63.0172 58.1688C69.2372 47.4246 66.9316 34.1097 58.1907 26.0121L59.2548 24.9509L68.7051 34.4129C68.7051 34.4129 68.7178 34.4002 68.7241 34.3939C74.4184 28.7155 74.4184 19.3673 68.7241 13.6888H68.7304Z" fill="url(#paint0_linear_288_4242)"/>
<path d="M40.5515 67.7763C53.0993 67.7763 63.2714 57.6325 63.2714 45.1195C63.2714 32.6065 53.0993 22.4626 40.5515 22.4626C28.0036 22.4626 17.8315 32.6065 17.8315 45.1195C17.8315 57.6325 28.0036 67.7763 40.5515 67.7763Z" fill="#FFBADC"/>
<path d="M38.0068 32.1292C37.6417 30.9456 36.3835 30.2812 35.1965 30.6454C34.0096 31.0095 33.3434 32.2642 33.7085 33.4479L38.6105 49.3376C38.9756 50.5213 40.2339 51.1856 41.4208 50.8215C42.6077 50.4574 43.2739 49.2026 42.9088 48.019L38.0068 32.1292Z" fill="#FF3B9B"/>
<path d="M49.6499 48.1635C50.7177 47.8173 51.302 46.6733 50.9548 45.6084C50.6076 44.5435 49.4605 43.9608 48.3926 44.3071L40.0318 47.0177C38.9639 47.3639 38.3797 48.5079 38.7269 49.5728C39.074 50.6377 40.2212 51.2204 41.2891 50.8741L49.6499 48.1635Z" fill="#FF3B9B"/>
</g>
<defs>
<linearGradient id="paint0_linear_288_4242" x1="6.99963" y1="40.2618" x2="72.9995" y2="40.2618" gradientUnits="userSpaceOnUse">
<stop offset="0.12" stop-color="#6991FF"/>
<stop offset="1" stop-color="#FF75B9"/>
</linearGradient>
<clipPath id="clip0_288_4242">
<rect width="65.9999" height="61.9384" fill="white" transform="translate(7 9.29224)"/>
</clipPath>
</defs>
</svg>
