<svg width="20" height="23" viewBox="0 0 20 23" fill="none" xmlns="http://www.w3.org/2000/svg">
<g clip-path="url(#clip0_226_1490)">
<path d="M19.9034 18.4075C19.4437 16.3861 17.4575 15.1238 15.4621 15.5896C14.7862 15.748 14.1977 16.0833 13.7333 16.5398L7.11724 12.3385C7.30575 11.8913 7.4069 11.3976 7.4069 10.8759C7.4069 10.5918 7.37471 10.3124 7.31494 10.0469L13.646 6.37655C14.3586 7.11247 15.3655 7.55496 16.4598 7.50372C18.5057 7.41057 20.0874 5.65459 19.9954 3.58189C19.9034 1.51385 18.1701 -0.088419 16.1241 7.83771e-05C14.0782 0.0932335 12.4966 1.84921 12.5885 3.92191C12.5977 4.14548 12.6299 4.35974 12.6759 4.56934L6.34483 8.23965C5.67356 7.54564 4.74023 7.11713 3.70575 7.11713C1.65977 7.12179 0 8.79858 0 10.8759C0 12.9533 1.65977 14.6301 3.70575 14.6301C4.50115 14.6301 5.23218 14.3739 5.83448 13.9454L12.708 18.3097C12.5655 18.8733 12.5425 19.4835 12.6805 20.089C13.1402 22.1104 15.1264 23.3727 17.1218 22.9069C19.1172 22.4411 20.3632 20.429 19.9034 18.4075Z" fill="url(#paint0_linear_226_1490)"/>
</g>
<defs>
<linearGradient id="paint0_linear_226_1490" x1="4.36782" y1="8.84973" x2="19.8668" y2="17.5268" gradientUnits="userSpaceOnUse">
<stop stop-color="#FF3B9B"/>
<stop offset="1" stop-color="#6991FF"/>
</linearGradient>
<clipPath id="clip0_226_1490">
<rect width="20" height="23" fill="white"/>
</clipPath>
</defs>
</svg>
